<?xml version="1.0" standalone="no"?>
<!DOCTYPE svg PUBLIC "-//W3C//DTD SVG 20010904//EN"
 "http://www.w3.org/TR/2001/REC-SVG-20010904/DTD/svg10.dtd">
<svg version="1.0" xmlns="http://www.w3.org/2000/svg"
 width="617.000000pt" height="617.000000pt" viewBox="0 0 617.000000 617.000000"
 preserveAspectRatio="xMidYMid meet">
<metadata>
Created by potrace 1.14, written by Peter Selinger 2001-2017
</metadata>
<g transform="translate(0.000000,617.000000) scale(0.100000,-0.100000)"
fill="#000000" stroke="none">
<path d="M1325 5645 c-14 -13 -25 -33 -25 -43 0 -10 65 -93 145 -183 79 -90
145 -168 145 -174 0 -5 -18 -20 -40 -33 -22 -12 -40 -27 -40 -32 0 -30 -40 4
-156 131 -185 203 -185 204 -230 174 -30 -19 -43 -51 -35 -82 6 -23 169 -219
235 -282 49 -48 47 -70 -9 -100 -59 -31 -71 -25 -176 93 -100 114 -159 174
-182 187 -25 14 -68 -9 -86 -45 -22 -47 -16 -56 188 -283 64 -71 71 -80 71
-95 0 -16 -77 -58 -107 -58 -15 0 -53 36 -129 123 -58 67 -116 130 -128 139
-39 32 -89 21 -112 -24 -14 -27 -13 -32 5 -61 11 -18 72 -93 135 -167 106
-124 130 -160 107 -160 -4 0 -21 -18 -36 -40 -15 -22 -33 -40 -40 -40 -13 0
-110 105 -214 233 -35 42 -74 80 -87 83 -35 9 -63 -4 -80 -37 -14 -28 -14 -33
5 -72 11 -23 57 -87 102 -142 45 -55 135 -165 199 -245 64 -80 184 -222 266
-316 82 -93 221 -258 310 -365 233 -281 326 -383 407 -443 158 -119 282 -159
498 -162 124 -2 154 -5 194 -23 58 -26 175 -143 175 -175 0 -23 -215 -248
-920 -961 -501 -507 -636 -642 -793 -794 -228 -220 -261 -274 -261 -441 -1
-89 2 -100 36 -171 84 -177 263 -281 434 -252 119 21 206 76 319 203 42 48
267 289 401 430 190 201 289 306 449 480 93 102 219 237 280 300 149 155 399
423 456 488 32 37 53 53 66 50 18 -3 352 -346 568 -583 92 -101 451 -488 585
-630 136 -144 336 -360 449 -485 68 -74 150 -154 183 -177 99 -69 202 -94 304
-73 229 47 386 277 340 500 -25 118 -65 180 -206 315 -592 570 -1880 1863
-1880 1888 0 24 39 37 113 37 107 -1 185 -53 288 -191 l51 -69 46 32 c191 130
493 388 717 613 321 320 603 688 766 1000 111 211 206 486 250 719 21 110 40
456 25 456 -15 0 -198 -53 -316 -92 -339 -111 -675 -280 -932 -470 -348 -257
-611 -490 -1087 -965 -217 -217 -391 -383 -399 -381 -12 2 -15 27 -16 128 -2
178 -46 324 -137 456 -27 40 -1242 1262 -1347 1355 -40 35 -75 37 -107 4z"/>
</g>
</svg>
